<?xml version="1.0" standalone="no"?><!DOCTYPE svg PUBLIC "-//W3C//DTD SVG 1.1//EN" "http://www.w3.org/Graphics/SVG/1.1/DTD/svg11.dtd"><svg t="1592460254506" class="icon" viewBox="0 0 1024 1024" version="1.1" xmlns="http://www.w3.org/2000/svg" p-id="8146" xmlns:xlink="http://www.w3.org/1999/xlink" width="200" height="200"><defs><style type="text/css"></style></defs><path d="M332.8 76.8h358.4a51.2 51.2 0 0 1 51.2 51.2v204.8a51.2 51.2 0 0 1-51.2 51.2h-358.4a51.2 51.2 0 0 1-51.2-51.2v-204.8a51.2 51.2 0 0 1 51.2-51.2z m0 51.2v204.8h358.4v-204.8h-358.4zM76.8 640h358.4a51.2 51.2 0 0 1 51.2 51.2v204.8a51.2 51.2 0 0 1-51.2 51.2h-358.4a51.2 51.2 0 0 1-51.2-51.2v-204.8a51.2 51.2 0 0 1 51.2-51.2z m0 51.2v204.8h358.4v-204.8h-358.4zM588.8 640h358.4a51.2 51.2 0 0 1 51.2 51.2v204.8a51.2 51.2 0 0 1-51.2 51.2h-358.4a51.2 51.2 0 0 1-51.2-51.2v-204.8a51.2 51.2 0 0 1 51.2-51.2z m0 51.2v204.8h358.4v-204.8h-358.4z" p-id="8147"></path><path d="M844.8 640h-51.2v-102.4h-563.2v102.4h-51.2v-102.4a51.2 51.2 0 0 1 51.2-51.2h563.2a51.2 51.2 0 0 1 51.2 51.2v102.4z" p-id="8148"></path><path d="M486.4 332.8h51.2v204.8h-51.2z" p-id="8149"></path></svg>