<?xml version="1.0" standalone="no"?><!DOCTYPE svg PUBLIC "-//W3C//DTD SVG 1.1//EN" "http://www.w3.org/Graphics/SVG/1.1/DTD/svg11.dtd"><svg t="1592460686459" class="icon" viewBox="0 0 1024 1024" version="1.1" xmlns="http://www.w3.org/2000/svg" p-id="11826" xmlns:xlink="http://www.w3.org/1999/xlink" width="200" height="200"><defs><style type="text/css"></style></defs><path d="M413.4 212.1v234.2H179.1V212.1h234.3m17-53.7H162.1c-20.3 0-36.7 16.4-36.7 36.7v268.3c0 20.3 16.4 36.7 36.7 36.7h268.3c20.3 0 36.7-16.4 36.7-36.7V195.1c0-20.2-16.4-36.7-36.7-36.7zM413 620.7v234.2H178.8V620.7H413m17-53.8H161.8c-20.3 0-36.7 16.4-36.7 36.7v268.3c0 20.3 16.4 36.7 36.7 36.7H430c20.3 0 36.7-16.4 36.7-36.7V603.6c0-20.2-16.4-36.7-36.7-36.7z m395.7 53.8v234.2H591.5V620.7h234.2m17-53.8H574.5c-20.3 0-36.7 16.4-36.7 36.7v268.3c0 20.3 16.4 36.7 36.7 36.7h268.3c20.3 0 36.7-16.4 36.7-36.7V603.6c-0.1-20.2-16.5-36.7-36.8-36.7zM708.6 163.6l165.6 165.6-165.6 165.7L543 329.3l165.6-165.7m0-60.7c-9.4 0-18.8 3.6-26 10.7L493 303.3c-14.3 14.3-14.3 37.6 0 51.9l189.7 189.7c7.2 7.2 16.6 10.7 26 10.7 9.4 0 18.8-3.6 26-10.7l189.7-189.7c14.3-14.3 14.3-37.6 0-51.9L734.5 113.6c-7.1-7.2-16.5-10.7-25.9-10.7z" fill="" p-id="11827"></path></svg>